# xmcd
#
# Track frame offsets:
#	150
#	10410
#	19972
#	33135
#	50865
#	65717
#	76922
#	90892
#	101287
#	109697
#	121025
#	134192
#	143442
#	156992
#	170702
#	185475
#	196862
#	214692
#	227942
#	245087
#
# Disc length: 3427
#
# Revision: 1
# Processed by: cddbd v1.5.1PL0 Copyright (c) Steve Scherf et al.
# Submitted via: ExactAudioCopy v0.90b3
# Normalized: r0:DSETVAR1
#
DISCID=140d6114
DTITLE=Various Artist - Country Stars and Hits
DYEAR=1987
DGENRE=Country
TTITLE0=J. Russel - Jambalaya
TTITLE1=Jimmy Horn - Old Folks At Home
TTITLE2=Mel McBrown - Everything From Jesus To Jack Daniels
TTITLE3=Country All Stars - Banks Of The Ohio
TTITLE4=Jeannie C. Riley - Harper Valley P.T.A.
TTITLE5=Jimmy Horn - My Old Kentucky Home
TTITLE6=Thorpe Gleen - Red River Valley
TTITLE7=Country All Stars - Yellow Rose Of Texas
TTITLE8=Johnny Cash - Luther's Boogie
TTITLE9=Country All Stars - Oh Susannah
TTITLE10=Lynn Anderson - Rose Garden
TTITLE11=Jimmy Horn - Cripple Creek
TTITLE12=Jimmy Dean - Big Bad John
TTITLE13=Country All Stars - Franky and Johnny
TTITLE14=Kingston Trio - Tom Dooley
TTITLE15=Country All Stars - All The Good Times
TTITLE16=Abilene - Dixieland Delight
TTITLE17=Dave Dudley - The Pool Shark
TTITLE18=Thorpe Gleen - On Top Of Smokey
TTITLE19=Hank Thompson - The Wild Side Of Life
EXTD=
EXTT0=
EXTT1=
EXTT2=
EXTT3=
EXTT4=
EXTT5=
EXTT6=
EXTT7=
EXTT8=
EXTT9=
EXTT10=
EXTT11=
EXTT12=
EXTT13=
EXTT14=
EXTT15=
EXTT16=
EXTT17=
EXTT18=
EXTT19=
PLAYORDER=
